<?xml version="1.0" encoding="utf-8"?>
<!-- Generator: Adobe Illustrator 20.1.0, SVG Export Plug-In . SVG Version: 6.00 Build 0)  -->
<svg version="1.1" id="Layer_1" xmlns="http://www.w3.org/2000/svg" xmlns:xlink="http://www.w3.org/1999/xlink" x="0px" y="0px"
	 width="238px" height="120.9px" viewBox="0 0 238 120.9" style="enable-background:new 0 0 238 120.9;" xml:space="preserve">
<style type="text/css">
	.st0{fill:#009ED1;}
	.st1{fill:#231F20;}
	.st2{fill:#FFFFFF;}
	.st3{fill:#F4F5F5;}
</style>
<g>
	<polygon class="st0" points="238,35.9 207.9,35.9 207.9,8.9 132.7,8.9 121.5,8.9 102,8.9 90.7,8.9 49,8.9 49,105.9 91,105.9 
		91,120.9 133,120.9 133,108.9 163,108.9 163,83.9 178,83.9 178,100.9 207.9,100.9 207.9,84.5 207.9,65.9 238,65.9 	"/>
	<polygon class="st1" points="0,80.9 49,80.9 49,89.9 90.2,89.9 104,76.1 104,22.9 90.3,8.9 49,8.9 49,0 0,0 	"/>
	<path class="st2" d="M17,24.9v-16H9v47.3v7.7h22l4-4v-31l-4-4H17z M17,55.9v-23h10v23H17z M49,63.9h-8V25h8V63.9z M62,63.9h-8v-25
		h8V63.9z M62,32.9h-8v-8h8V32.9z M90,63.9l4-4v-31l-4-4H68v55h8v-16H90z M85.8,55.9H75.6v-23h10.2V55.9z"/>
	<g>
		<path class="st3" d="M115.8,33.3l2.4,7.9h0l2.2-7.9h1.3l2.2,7.9h0l2.4-7.9h1.2l-3,9.2h-1.2l-2.3-7.7h0l-2.2,7.7h-1.2l-3-9.2H115.8
			z"/>
		<path class="st3" d="M129.1,39.5c0.1,0.4,0.3,0.8,0.5,1.2c0.2,0.3,0.6,0.6,0.9,0.9c0.4,0.2,0.8,0.3,1.4,0.3c0.8,0,1.5-0.2,1.9-0.6
			c0.5-0.4,0.8-1,1-1.7h1.1c-0.2,1-0.7,1.9-1.3,2.4s-1.5,0.9-2.7,0.9c-0.7,0-1.4-0.1-1.9-0.4c-0.5-0.3-1-0.6-1.3-1.1
			c-0.3-0.4-0.6-1-0.7-1.5c-0.2-0.6-0.2-1.2-0.2-1.9c0-0.6,0.1-1.2,0.2-1.8c0.2-0.6,0.4-1.1,0.7-1.6c0.3-0.5,0.8-0.8,1.3-1.1
			c0.5-0.3,1.2-0.4,1.9-0.4c0.7,0,1.4,0.1,1.9,0.4s0.9,0.7,1.3,1.2s0.6,1,0.7,1.7s0.2,1.3,0.2,1.9h-7.1
			C128.9,38.6,129,39,129.1,39.5z M134.6,36c-0.1-0.4-0.3-0.7-0.6-1s-0.6-0.5-0.9-0.7c-0.4-0.2-0.8-0.3-1.2-0.3
			c-0.5,0-0.9,0.1-1.2,0.3c-0.4,0.2-0.7,0.4-0.9,0.7c-0.2,0.3-0.4,0.7-0.6,1.1c-0.1,0.4-0.2,0.8-0.3,1.2h5.9
			C134.8,36.8,134.8,36.4,134.6,36z"/>
		<path class="st3" d="M138.2,29.8v5.3h0c0.1-0.3,0.3-0.6,0.5-0.9c0.2-0.2,0.5-0.5,0.8-0.6c0.3-0.2,0.6-0.3,0.9-0.4s0.7-0.1,1-0.1
			c0.7,0,1.3,0.1,1.8,0.4s0.9,0.6,1.3,1.1c0.3,0.4,0.6,1,0.8,1.5c0.2,0.6,0.2,1.2,0.2,1.9s-0.1,1.3-0.2,1.9s-0.4,1.1-0.8,1.5
			c-0.3,0.4-0.8,0.8-1.3,1.1c-0.5,0.3-1.1,0.4-1.8,0.4c-0.7,0-1.4-0.2-2-0.5c-0.6-0.3-1-0.8-1.3-1.5h0v1.7h-1V29.8H138.2z
			 M144.2,36.5c-0.1-0.5-0.3-0.9-0.5-1.3c-0.2-0.4-0.6-0.7-0.9-0.9c-0.4-0.2-0.8-0.3-1.4-0.3c-0.6,0-1.1,0.1-1.5,0.3
			c-0.4,0.2-0.7,0.5-1,0.9c-0.3,0.4-0.4,0.8-0.6,1.3c-0.1,0.5-0.2,0.9-0.2,1.4c0,0.5,0.1,0.9,0.2,1.4c0.1,0.5,0.3,0.9,0.6,1.3
			c0.3,0.4,0.6,0.7,1,0.9c0.4,0.2,0.9,0.3,1.5,0.3c0.5,0,1-0.1,1.4-0.3s0.7-0.5,0.9-0.9c0.2-0.4,0.4-0.8,0.5-1.3s0.2-0.9,0.2-1.4
			C144.4,37.4,144.4,37,144.2,36.5z"/>
		<path class="st3" d="M116.3,54.3c0.1,0.4,0.3,0.8,0.5,1.2c0.2,0.3,0.6,0.6,0.9,0.9c0.4,0.2,0.8,0.3,1.4,0.3c0.8,0,1.5-0.2,1.9-0.6
			c0.5-0.4,0.8-1,1-1.7h1.1c-0.2,1-0.7,1.9-1.3,2.4c-0.6,0.6-1.5,0.9-2.7,0.9c-0.7,0-1.4-0.1-1.9-0.4c-0.5-0.3-1-0.6-1.3-1.1
			s-0.6-1-0.7-1.5s-0.2-1.2-0.2-1.9c0-0.6,0.1-1.2,0.2-1.8s0.4-1.1,0.7-1.6s0.8-0.8,1.3-1.1c0.5-0.3,1.2-0.4,1.9-0.4
			c0.7,0,1.4,0.1,1.9,0.4s0.9,0.7,1.3,1.2c0.3,0.5,0.6,1,0.7,1.7s0.2,1.3,0.2,1.9h-7.1C116.2,53.4,116.2,53.8,116.3,54.3z
			 M121.9,50.8c-0.1-0.4-0.3-0.7-0.6-1c-0.2-0.3-0.6-0.5-0.9-0.7s-0.8-0.3-1.2-0.3c-0.5,0-0.9,0.1-1.2,0.3c-0.4,0.2-0.7,0.4-0.9,0.7
			c-0.2,0.3-0.4,0.7-0.6,1.1c-0.1,0.4-0.2,0.8-0.3,1.2h5.9C122.1,51.6,122,51.2,121.9,50.8z"/>
		<path class="st3" d="M125.4,48.1v1.6h0c0.2-0.6,0.6-1,1.1-1.3c0.5-0.3,1.1-0.5,1.8-0.5c0.6,0,1.2,0.1,1.6,0.2s0.8,0.4,1,0.7
			c0.3,0.3,0.4,0.7,0.6,1.1c0.1,0.4,0.2,0.9,0.2,1.5v5.9h-1.1v-5.7c0-0.4,0-0.8-0.1-1.1c-0.1-0.3-0.2-0.6-0.4-0.9s-0.4-0.4-0.7-0.6
			s-0.7-0.2-1.1-0.2s-0.9,0.1-1.2,0.2c-0.4,0.2-0.6,0.4-0.9,0.7c-0.2,0.3-0.4,0.6-0.6,1s-0.2,0.8-0.2,1.3v5.4h-1.1v-9.2L125.4,48.1z
			"/>
		<path class="st3" d="M141,58.4c-0.1,0.5-0.4,1-0.7,1.4c-0.3,0.4-0.7,0.7-1.3,0.9s-1.1,0.3-1.9,0.3c-0.5,0-0.9-0.1-1.4-0.2
			c-0.4-0.1-0.8-0.3-1.2-0.5c-0.4-0.2-0.6-0.5-0.9-0.9c-0.2-0.4-0.4-0.8-0.4-1.3h1.1c0.1,0.3,0.2,0.6,0.3,0.9
			c0.2,0.2,0.4,0.4,0.6,0.6c0.2,0.1,0.5,0.2,0.8,0.3s0.6,0.1,0.9,0.1c1,0,1.8-0.3,2.3-0.9c0.5-0.6,0.7-1.4,0.7-2.6v-1.2h0
			c-0.3,0.6-0.6,1-1.1,1.4c-0.5,0.3-1.1,0.5-1.8,0.5c-0.7,0-1.4-0.1-1.9-0.4c-0.5-0.2-1-0.6-1.3-1c-0.3-0.4-0.6-0.9-0.7-1.5
			c-0.2-0.6-0.2-1.2-0.2-1.8c0-0.6,0.1-1.2,0.3-1.8c0.2-0.6,0.5-1.1,0.8-1.5c0.4-0.4,0.8-0.8,1.3-1c0.5-0.2,1.1-0.4,1.8-0.4
			c0.3,0,0.7,0,1,0.1c0.3,0.1,0.6,0.2,0.8,0.4c0.2,0.2,0.5,0.4,0.7,0.6c0.2,0.2,0.3,0.5,0.5,0.7h0v-1.6h1.1v8.4
			C141.2,57.2,141.1,57.8,141,58.4z M138.4,55.9c0.4-0.2,0.7-0.5,0.9-0.8c0.2-0.3,0.4-0.7,0.6-1.2c0.1-0.4,0.2-0.9,0.2-1.4
			c0-0.5-0.1-0.9-0.2-1.4c-0.1-0.5-0.3-0.9-0.5-1.2s-0.5-0.7-0.9-0.9c-0.4-0.2-0.8-0.3-1.4-0.3s-1,0.1-1.4,0.3
			c-0.4,0.2-0.7,0.5-0.9,0.9c-0.2,0.4-0.4,0.8-0.5,1.2c-0.1,0.5-0.2,0.9-0.2,1.4c0,0.5,0.1,0.9,0.2,1.4c0.1,0.4,0.3,0.8,0.6,1.2
			c0.2,0.3,0.6,0.6,0.9,0.8c0.4,0.2,0.8,0.3,1.4,0.3C137.6,56.2,138,56.1,138.4,55.9z"/>
		<path class="st3" d="M144,44.6v1.8h-1.1v-1.8H144z M144,48.1v9.2h-1.1v-9.2H144z"/>
		<path class="st3" d="M146.8,48.1v1.6h0c0.2-0.6,0.6-1,1.1-1.3c0.5-0.3,1.1-0.5,1.8-0.5c0.6,0,1.2,0.1,1.6,0.2
			c0.4,0.2,0.8,0.4,1,0.7c0.3,0.3,0.4,0.7,0.6,1.1s0.2,0.9,0.2,1.5v5.9h-1.1v-5.7c0-0.4,0-0.8-0.1-1.1c-0.1-0.3-0.2-0.6-0.4-0.9
			s-0.4-0.4-0.7-0.6s-0.7-0.2-1.1-0.2s-0.9,0.1-1.2,0.2c-0.4,0.2-0.6,0.4-0.9,0.7s-0.4,0.6-0.6,1c-0.1,0.4-0.2,0.8-0.2,1.3v5.4h-1.1
			v-9.2L146.8,48.1z"/>
		<path class="st3" d="M155.7,54.3c0.1,0.4,0.3,0.8,0.5,1.2c0.2,0.3,0.6,0.6,0.9,0.9c0.4,0.2,0.8,0.3,1.4,0.3c0.8,0,1.5-0.2,1.9-0.6
			s0.8-1,1-1.7h1.1c-0.2,1-0.7,1.9-1.3,2.4c-0.6,0.6-1.5,0.9-2.7,0.9c-0.7,0-1.4-0.1-1.9-0.4s-1-0.6-1.3-1.1s-0.6-1-0.7-1.5
			c-0.2-0.6-0.2-1.2-0.2-1.9c0-0.6,0.1-1.2,0.2-1.8c0.2-0.6,0.4-1.1,0.7-1.6s0.8-0.8,1.3-1.1s1.2-0.4,1.9-0.4c0.7,0,1.4,0.1,1.9,0.4
			c0.5,0.3,0.9,0.7,1.3,1.2c0.3,0.5,0.6,1,0.7,1.7s0.2,1.3,0.2,1.9h-7.1C155.5,53.4,155.6,53.8,155.7,54.3z M161.2,50.8
			c-0.1-0.4-0.3-0.7-0.6-1c-0.2-0.3-0.6-0.5-0.9-0.7s-0.8-0.3-1.2-0.3c-0.5,0-0.9,0.1-1.2,0.3c-0.4,0.2-0.7,0.4-0.9,0.7
			c-0.2,0.3-0.4,0.7-0.6,1.1c-0.1,0.4-0.2,0.8-0.3,1.2h6C161.4,51.6,161.4,51.2,161.2,50.8z"/>
		<path class="st3" d="M164.5,54.3c0.1,0.4,0.3,0.8,0.5,1.2c0.2,0.3,0.6,0.6,0.9,0.9c0.4,0.2,0.8,0.3,1.4,0.3c0.8,0,1.5-0.2,1.9-0.6
			s0.8-1,1-1.7h1.1c-0.2,1-0.7,1.9-1.3,2.4c-0.6,0.6-1.5,0.9-2.7,0.9c-0.7,0-1.4-0.1-1.9-0.4c-0.5-0.3-1-0.6-1.3-1.1
			c-0.3-0.4-0.6-1-0.7-1.5s-0.2-1.2-0.2-1.9c0-0.6,0.1-1.2,0.2-1.8s0.4-1.1,0.7-1.6c0.3-0.5,0.8-0.8,1.3-1.1
			c0.5-0.3,1.2-0.4,1.9-0.4c0.7,0,1.4,0.1,1.9,0.4c0.5,0.3,0.9,0.7,1.3,1.2c0.3,0.5,0.6,1,0.7,1.7s0.2,1.3,0.2,1.9h-7.1
			C164.3,53.4,164.4,53.8,164.5,54.3z M170,50.8c-0.1-0.4-0.3-0.7-0.6-1s-0.6-0.5-0.9-0.7c-0.4-0.2-0.8-0.3-1.2-0.3
			c-0.5,0-0.9,0.1-1.2,0.3s-0.7,0.4-0.9,0.7c-0.2,0.3-0.4,0.7-0.6,1.1c-0.1,0.4-0.2,0.8-0.3,1.2h6C170.2,51.6,170.2,51.2,170,50.8z"
			/>
		<path class="st3" d="M173.5,48.1v2.2h0c0.3-0.7,0.7-1.3,1.3-1.7c0.6-0.4,1.3-0.6,2.1-0.6v1.1c-0.5,0-1,0-1.4,0.2
			c-0.4,0.2-0.8,0.4-1.1,0.7s-0.5,0.7-0.7,1.1s-0.2,0.9-0.2,1.3v4.9h-1.1v-9.2L173.5,48.1z"/>
		<path class="st3" d="M182.9,49.9c-0.1-0.3-0.3-0.5-0.5-0.6c-0.2-0.2-0.5-0.3-0.8-0.4c-0.3-0.1-0.6-0.1-0.9-0.1
			c-0.2,0-0.5,0-0.8,0.1c-0.3,0.1-0.5,0.1-0.7,0.3c-0.2,0.1-0.4,0.3-0.5,0.5c-0.1,0.2-0.2,0.5-0.2,0.7c0,0.2,0.1,0.5,0.2,0.6
			s0.3,0.3,0.5,0.4c0.2,0.1,0.4,0.2,0.6,0.3s0.4,0.1,0.6,0.2l1.5,0.3c0.3,0,0.6,0.1,1,0.3c0.3,0.1,0.6,0.3,0.8,0.5
			c0.2,0.2,0.4,0.5,0.6,0.7s0.2,0.6,0.2,1.1c0,0.5-0.1,0.9-0.3,1.3c-0.2,0.3-0.5,0.6-0.9,0.9c-0.4,0.2-0.7,0.4-1.2,0.5
			c-0.4,0.1-0.9,0.1-1.3,0.1c-1.1,0-2-0.3-2.6-0.8c-0.7-0.5-1.1-1.3-1.1-2.5h1.1c0,0.8,0.3,1.3,0.8,1.7c0.5,0.4,1.1,0.6,1.9,0.6
			c0.3,0,0.6,0,0.8-0.1c0.3-0.1,0.6-0.2,0.8-0.3s0.5-0.3,0.6-0.5c0.2-0.2,0.2-0.5,0.2-0.8c0-0.3-0.1-0.5-0.2-0.7s-0.3-0.3-0.5-0.5
			c-0.2-0.1-0.4-0.2-0.6-0.3c-0.2-0.1-0.5-0.2-0.7-0.2l-1.4-0.3c-0.4-0.1-0.7-0.2-1-0.3s-0.6-0.3-0.8-0.5c-0.2-0.2-0.4-0.4-0.5-0.7
			s-0.2-0.6-0.2-1c0-0.5,0.1-0.9,0.3-1.2c0.2-0.3,0.5-0.6,0.8-0.8c0.3-0.2,0.7-0.4,1.1-0.4c0.4-0.1,0.8-0.1,1.2-0.1
			c0.5,0,0.9,0.1,1.3,0.2c0.4,0.1,0.7,0.3,1.1,0.6c0.3,0.2,0.5,0.6,0.7,0.9c0.2,0.4,0.3,0.8,0.3,1.3h-1.1
			C183.1,50.4,183,50.1,182.9,49.9z"/>
	</g>
</g>
</svg>
